<svg xmlns="http://www.w3.org/2000/svg" width="22" height="18" viewBox="0 0 22 18"><g><g><g><path fill="#e31e25" d="M20.819.43c.214 0 .42.087.572.24a.827.827 0 0 1 .237.58v6.556c0 .45-.257 1.08-.572 1.399l-8.032 8.129a.807.807 0 0 1-1.145 0l-6.953-7.037a.827.827 0 0 1 0-1.159l8.032-8.129c.315-.318.938-.579 1.382-.579zm-2.903 6.077a1.65 1.65 0 0 0 0-2.32 1.61 1.61 0 0 0-2.642.532 1.657 1.657 0 0 0 .35 1.787 1.62 1.62 0 0 0 1.146.48c.43 0 .842-.172 1.146-.48z"/></g><g><path fill="#e31e25" d="M2.193 9.718L11.37.43h-1.35c-.444 0-1.067.261-1.382.58L.606 9.137a.827.827 0 0 0 0 1.16l6.953 7.035a.807.807 0 0 0 1.145 0l.508-.513-7.018-7.103z"/></g></g></g></svg>