<svg xmlns="http://www.w3.org/2000/svg" width="24" height="24" viewBox="0 0 24 24"><g><g><g/><g><g><g><path fill="#e31e25" d="M23.798.206a.703.703 0 0 0-.994 0L20.45 2.561c-.783-.37-1.74-.25-2.385.396L13.59 7.432l2.983 2.983 4.474-4.475c.647-.646.766-1.603.397-2.385L23.798 1.2a.703.703 0 0 0 0-.994z"/></g></g></g><g><g><g><path fill="#e31e25" d="M4.14 21.847l-1.99-1.99a3.477 3.477 0 0 1-.364-.447 2.125 2.125 0 0 0-.04 1.846l-1.54 1.539a.703.703 0 1 0 .994.994l1.548-1.547c.658.31 1.207.285 1.835-.032a3.531 3.531 0 0 1-.443-.363z"/></g></g></g><g><g><g><path fill="#e31e25" d="M16.073 11.904l-3.977-3.977a2.112 2.112 0 0 0-2.984 0 2.105 2.105 0 0 0-.522 2.118c.055.18-.025.418-.2.593l-5.245 5.244c-.82.822-.82 2.16.001 2.982l1.99 1.99c.822.822 2.16.82 2.982 0l.547-.547L6.18 17.82a.703.703 0 1 1 .994-.995l2.486 2.486.995-.994-2.486-2.486a.703.703 0 1 1 .994-.995l2.486 2.487.995-.995-2.486-2.486a.703.703 0 1 1 .994-.994l2.572 2.572a.486.486 0 0 1 .232-.011 2.095 2.095 0 0 0 2.118-.523 2.112 2.112 0 0 0 0-2.983z"/></g></g></g></g></g></svg>